# Blender 4.5.3 LTS
# www.blender.org
mtllib custom_object.mtl
o Cube
v -1.000000 -1.000000 1.000000
v -1.997893 -0.430970 1.462679
v -1.000000 -1.000000 -1.000000
v -1.000000 1.000000 -1.000000
v 1.000000 -1.000000 1.000000
v 1.331954 1.307809 1.912479
v 1.000000 -1.000000 -1.000000
v 1.410851 1.223016 -2.386881
vn -0.9066 -0.2984 -0.2984
vn -0.2756 -0.2756 -0.9209
vn 0.9870 -0.1603 0.0145
vn 0.0603 -0.4191 0.9059
vn -0.0000 -1.0000 -0.0000
vn -0.2996 0.9437 0.1402
vt 0.375000 0.000000
vt 0.625000 0.000000
vt 0.625000 0.250000
vt 0.375000 0.250000
vt 0.625000 0.500000
vt 0.375000 0.500000
vt 0.625000 0.750000
vt 0.375000 0.750000
vt 0.625000 1.000000
vt 0.375000 1.000000
vt 0.125000 0.500000
vt 0.125000 0.750000
vt 0.875000 0.500000
vt 0.875000 0.750000
s 0
usemtl Material
f 1/1/1 2/2/1 4/3/1 3/4/1
f 3/4/2 4/3/2 8/5/2 7/6/2
f 7/6/3 8/5/3 6/7/3 5/8/3
f 5/8/4 6/7/4 2/9/4 1/10/4
f 3/11/5 7/6/5 5/8/5 1/12/5
f 8/5/6 4/13/6 2/14/6 6/7/6
